<?xml version="1.0" encoding="utf-8" ?>
<svg baseProfile="full" height="300mm" version="1.1" viewBox="0,0,200,300" width="200mm" xmlns="http://www.w3.org/2000/svg" xmlns:ev="http://www.w3.org/2001/xml-events" xmlns:xlink="http://www.w3.org/1999/xlink"><defs /><rect fill="#222222" height="300" width="200" x="0" y="0" /><text fill="#FFFFFF" style="font-size:12px; font-family:Arial; font-weight:bold;" x="10" y="20">Over 10km Runs</text><text fill="#FFFFFF" style="font-size:4px; font-family:Arial" x="10" y="280">Runner</text><text fill="#FFFFFF" style="font-size:9px; font-family:Arial" x="10" y="290">chuxin0304</text><text fill="#FFFFFF" style="font-size:4px; font-family:Arial" x="65" y="280">SPECIAL TRACKS</text><rect fill="yellow" height="2.6" width="2.6" x="65" y="283" /><text fill="#FFFFFF" style="font-size:3px; font-family:Arial" x="70" y="285.5">Over 20.0 km</text><rect fill="red" height="2.6" width="2.6" x="65" y="287" /><text fill="#FFFFFF" style="font-size:3px; font-family:Arial" x="70" y="289.5">Over 40.0 km</text><text fill="#FFFFFF" style="font-size:4px; font-family:Arial" x="120" y="280">STATISTICS</text><text fill="#FFFFFF" style="font-size:3px; font-family:Arial" x="120" y="285">Number: 3</text><text fill="#FFFFFF" style="font-size:3px; font-family:Arial" x="120" y="290">Weekly: 1.5</text><text fill="#FFFFFF" style="font-size:3px; font-family:Arial" x="141" y="285">Total: 48.2 km</text><text fill="#FFFFFF" style="font-size:3px; font-family:Arial" x="141" y="290">Avg: 16.1 km</text><text fill="#FFFFFF" style="font-size:3px; font-family:Arial" x="167" y="285">Min: 10.3 km</text><text fill="#FFFFFF" style="font-size:3px; font-family:Arial" x="167" y="290">Max: 24.8 km</text><polyline fill="none" opacity="1" points="37.10688538849354,55.232333136023954 37.475815584883094,94.28590743010864 50.019442323595285,111.16076494450681 71.0484636221081,102.48227762710303 71.7863240186125,53.78589553828351 59.98055767454207,38.35718816961162 46.33014034293592,38.35718816961162 37.10688538849354,48.964432273292914 37.84474578499794,99.10730414208956 43.74762895517051,108.26793838804588 56.660185892134905,111.16076494450681 72.89311461336911,96.69660667027347 71.7863240186125,49.92872549290769 52.60195371322334,36.91074313712306 36.00009479187429,52.339457301655784 38.5826061796397,102.48227762710303 54.4466047026217,110.67862736107782 71.7863240186125,101.03586084232666 70.3106032256037,49.92872549290769 58.87376708164811,38.35718816961162 37.84474578499794,47.51799191418104 37.10688538849354,87.53594014095142 44.854419549927115,110.67862736107782 61.456278467550874,109.71435198374093 71.4173938203603,102.00013877032325 71.7863240186125,48.00013877102174 54.8155349008739,37.87503989669494 41.165117567405105,39.32148450403474 37.10688538849354,47.03584498609416 37.10688538849354,99.10730414208956 51.12623291835189,111.64290245552547 72.89311461336911,99.58944342308678 70.3106032256037,48.964432273292914 62.194138864055276,39.32148450403474 48.174791334196925,36.91074313712306 36.00009479187429,52.82160345185548 38.9515363778919,104.89297084906138 57.76697648689151,111.64290245552547 73.26204481162131,95.25018733902834 68.8348824325949,47.03584498609416 50.019442323595285,36.42859465023503 36.36902499012649,53.78589553828351 38.213675981387496,106.33938593254425 58.50483688339591,110.67862736107782 73.26204481162131,94.76804741914384 71.0484636221081,48.00013877102174 51.12623291835189,37.87503989669494 36.36902499012649,54.7501873401925 38.213675981387496,105.85724764270708 59.98055767454207,111.64290245552547 73.26204481162131,95.73232718743384 71.0484636221081,48.00013877102174 61.08734827116132,39.32148450403474 46.33014034293592,38.8393363726791 36.00009479187429,55.7144788603764 39.6893967743963,107.78580037993379 59.61162747815251,111.64290245552547 73.26204481162131,96.69660667027347 72.1552542168647,49.44657891779207 51.86409331485629,37.392891553230584 36.73795519024134,52.339457301655784 40.42725717276335,106.33938593254425 59.61162747815251,111.16076494450681 73.26204481162131,94.28590743010864 70.67953342199326,46.55369798629545 49.65051212720573,37.87503989669494 36.36902499012649,54.26804147497751 40.0583269726485,105.37510928185657 47.43693093769252,113.08931456552818 59.98055767454207,112.1250398971606 73.63097500987351,94.76804741914384 73.99990520626307,46.55369798629545 54.0776745043695,37.87503989669494 37.10688538849354,53.30374953011051 40.42725717276335,106.33938593254425 61.08734827116132,112.1250398971606 73.63097500987351,95.25018733902834 71.4173938203603,46.55369798629545 47.80586113408208,39.32148450403474 36.36902499012649,53.78589553828351 41.165117567405105,106.8215241516009 48.174791334196925,113.08931456552818 61.456278467550874,111.64290245552547 73.63097500987351,94.76804741914384 71.4173938203603,47.03584498609416 47.80586113408208,35.94644609396346 36.73795519024134,52.82160345185548 42.64083836041391,109.71435198374093 59.98055767454207,115.5 73.63097500987351,97.17874630703591 71.0484636221081,46.55369798629545 48.54372153058648,38.35718816961162 37.10688538849354,52.339457301655784 40.0583269726485,104.89297084906138 58.50483688339591,114.05358895193785 73.26204481162131,96.69660667027347 71.4173938203603,47.03584498609416 47.43693093769252,38.8393363726791 36.36902499012649,53.78589553828351 40.42725717276335,107.30366230104119 61.456278467550874,114.05358895193785 73.26204481162131,98.14302536589094 70.3106032256037,47.51799191418104 60.71841807290912,39.32148450403474 47.06800073944032,38.8393363726791 36.36902499012649,51.857311081839725 38.9515363778919,107.78580037993379 60.71841807290912,112.6071772670839 72.89311461336911,97.17874630703591 69.9416730273515,45.58940377575345 47.80586113408208,35.94644609396346 36.36902499012649,53.30374953011051 41.534047765657306,106.8215241516009 58.87376708164811,114.53572603967041 73.26204481162131,97.17874630703591 70.67953342199326,46.55369798629545 49.65051212720573,34.5 36.73795519024134,51.375164790079" stroke="#4DD2FF" stroke-dasharray="none" stroke-linecap="round" stroke-linejoin="round" stroke-width="0.5"><title>2026-08-15 10.3km</title><desc>1786789043000</desc></polyline><polyline fill="none" opacity="1" points="184.02708760416135,39.67783715724363 177.8066129423678,41.292417079763254 151.30568664334714,40.73566615884192 146.61902765161358,39.51081125572091 142.8270944673568,37.450819087505806 142.01758064166643,35.83622280898271 143.1679423940368,34.72270412865328 144.74436405510642,35.223787939263275 145.7243018441368,37.617845896456856 145.46866589901038,42.79564048341126 144.5739400915336,44.6885799971642 130.04529721708968,45.07830166525673 120.20331333437935,48.196060592192225 115.17580641596578,51.536488142446615 111.383873231709,55.433616430469556 108.65708981826901,59.55339421881945 106.86763820331544,64.06282941444078 105.97291239583865,71.07739981342456 107.33630410232581,78.70420612712041 119.47901149024256,108.48625110238208 122.37621886702254,112.93944003572688 130.7269930706825,112.04880643141223 133.24074652977288,115.5 131.91996081382968,112.88377549676807 130.55656910710968,111.88181239785627 123.14312670193613,112.82811094951467 121.05543315107934,111.54782410999178 107.33630410232581,77.9248314955039 106.22854834073223,71.7454473710095 107.03806216665544,64.50820282081258 111.51169120427221,55.767654134484474 119.56422347202897,48.75280056061456 129.1505714096129,45.41234849047032 145.2982419359032,44.41020713170292 146.1503617526032,37.617845896456856 145.0,35.39081572915893 143.46618432994,34.5 142.1453986139968,36.00325032879482 142.91230644891039,37.840548193780705 147.59896544087678,40.0675639747933 152.41344240517356,41.0140417215589" stroke="#4DD2FF" stroke-dasharray="none" stroke-linecap="round" stroke-linejoin="round" stroke-width="0.5"><title>2026-08-13 13.1km</title><desc>1786632318636</desc></polyline><polyline fill="none" opacity="1" points="32.84067446668632,209.74023549818958 30.926703372388147,208.8903533007251 30.16483138327021,208.23472690727795 30.555058499565348,207.48196747276234 31.409841706743464,207.7005108873418 31.8000688230386,208.79322362864332 31.614246386801824,211.2942945084942 31.186854783212766,211.85278089852363 24.86889194766991,211.97419073386118 20.427735719131306,213.43110180574877 18.123537508537993,215.13081517032697 16.153819683473557,217.3889787655935 15.094631796120666,219.5257073288958 14.574328974471428,221.7352498822729 14.5,223.7990816518286 14.964556090766564,226.2028061937017 21.040949759073555,240.94003049413732 22.118719889898784,241.59552727345726 25.277701307553798,241.15852970916603 25.853750860202126,241.6198048820661 26.281142463791184,242.6637386824441 25.872333103907295,241.59552727345726 25.20337233308237,241.08569666958647 21.914315209840424,241.52269442628312 21.040949759073555,240.96430819894886 15.020302821765654,226.25136592549097 14.574328974471428,224.017603508124 14.64865794905927,221.66240829050366 15.168960770708509,219.54998817664455 16.54404679965228,217.00047969755542 18.383688919479027,214.98512613776256 20.241913282778114,213.64963735967467 24.367171369493008,212.1198824185558 31.55849965591915,211.65852497676678 31.892980041215196,208.5261167363933 31.298348244978115,207.53053270097007 30.59222298685927,207.45768485333247 30.16483138327021,208.13759685016703 30.555058499565348,208.79322362864332 32.58052305574529,209.76451778254705 34.754645560868084,210.17731607076712 45.94115622842219,210.347291536993 49.11871988978237,209.66738862390048 88.60598761180881,210.71152409072965 94.81245698546991,210.80865263636224 95.5,210.44442029640777 92.15519614587538,210.73580623250746 50.95836200960912,209.59454171739344 48.152443220838904,209.61882402308402 45.82966276654042,210.29872713588702 34.605987611808814,210.1044693888398 32.58052305574529,209.69167091890995 30.517894012387842,208.62324656525743 30.109084652387537,207.99190165754408 30.555058499565348,207.28770641738083 31.335512732272036,207.384836973637 31.744322092155926,208.47755180047534 31.63282863027416,211.70708897861186 30.85237439768389,212.02275464303966 24.330006882199086,212.1198824185558 19.8888506537769,213.86817262491968 17.99346180318389,215.25222259941802 16.153819683473557,217.43754108490248 15.150378527119756,219.42858390201582 14.555746730882674,221.80809144191153 14.555746730882674,224.30896553404455 15.113214039825834,226.61556345970894 21.05953200266231,240.98858590013697 22.100137646193616,241.59552727345726 25.240536820376292,241.1342520328326 25.9094975910848,241.64408248718246 26.33688919467386,242.71229358261917 25.835168616613373,241.59552727345726 25.20337233308237,241.1099743529776 21.988644184311852,241.57124966134143 21.003785271779634,241.0371412920358 14.945973847177811,225.96000732082757 14.630075705470517,221.88093296953593 15.224707501707599,219.42858390201582 16.22814865782857,217.4618222391873 17.881968341302127,215.4707557472284 19.8888506537769,213.86817262491968 22.230213351664133,212.70264787395718 24.274260151316412,212.1198824185558 31.577081899507903,211.68280697942828 31.911562284920365,208.55039919892442 31.372677219565958,207.50625008861243 30.610805230564438,207.40911960374797 30.18341362697538,208.13759685016703 30.833792154095136,208.93891811536741 32.84067446668632,209.83736461418448 35.051961458986625,210.17731607076712 46.01548520301003,210.32300933827355 48.67274604272097,209.61882402308402 92.52684101846535,210.76008837063273 95.07260839641094,210.76008837063273" stroke="yellow" stroke-dasharray="none" stroke-linecap="round" stroke-linejoin="round" stroke-width="0.5"><title>2026-08-01 24.8km</title><desc>1785594350441</desc></polyline></svg>